<?xml version="1.0" standalone="no"?>
<!DOCTYPE svg PUBLIC "-//W3C//DTD SVG 20010904//EN"
 "http://www.w3.org/TR/2001/REC-SVG-20010904/DTD/svg10.dtd">
<svg version="1.0" xmlns="http://www.w3.org/2000/svg"
 width="980.000000pt" height="980.000000pt" viewBox="0 0 980.000000 980.000000"
 preserveAspectRatio="xMidYMid meet">

<g transform="translate(0.000000,980.000000) scale(0.100000,-0.100000)"
fill="#fed17d" stroke="none">
<path d="M4535 9790 c-362 -20 -883 -135 -1296 -285 -665 -242 -1176 -556
-1682 -1033 -674 -635 -1109 -1344 -1362 -2217 -321 -1109 -239 -2299 232
-3355 332 -746 882 -1432 1549 -1933 461 -346 1100 -656 1674 -811 619 -168
1436 -199 2136 -81 799 135 1673 553 2314 1109 766 665 1304 1530 1548 2491
114 448 152 758 152 1230 0 375 -24 627 -90 956 -161 801 -529 1560 -1071
2209 -212 255 -537 560 -814 765 -736 546 -1606 871 -2525 944 -184 15 -593
21 -765 11z m573 -1511 c554 -60 1048 -363 1367 -839 67 -101 172 -313 209
-424 95 -281 119 -603 71 -932 -86 -576 -488 -1104 -1046 -1374 -522 -252
-1099 -250 -1624 5 -280 136 -496 313 -688 563 -414 539 -491 1318 -191 1942
344 716 1114 1145 1902 1059z m1552 -4538 c319 -30 651 -126 955 -275 201 -99
372 -211 510 -334 170 -151 315 -319 315 -366 0 -53 -171 -307 -358 -531 -902
-1079 -2305 -1627 -3704 -1449 -859 109 -1650 481 -2303 1081 -235 216 -518
553 -648 771 -62 104 -66 129 -34 184 51 86 236 275 388 395 385 305 973 510
1529 533 279 12 3216 4 3350 -9z"/>
</g>
</svg>
